# xmcd CD database file
#
# Track frame offsets:
#	150
#	16857
#	43516
#	65367
#	78660
#	100439
#	118794
#	137560
#	159933
#	179494
#	195226
#
# Disc length: 2922 seconds
#
# Revision: 0
# Processed by: cddbd v1.5.1PL0 Copyright (c) Steve Scherf et al.
# Submitted via: CDex 1.51
#
DISCID=890b680b
DTITLE=Jazz Club Trio - Standards Collection
DYEAR=2004
DGENRE=Jazz
TTITLE0=All Of Me
TTITLE1=Autumn Leaves
TTITLE2=Lullaby Of Birdland
TTITLE3=St. Thomas
TTITLE4=Desafinado
TTITLE5=Someday My Prince Will Come
TTITLE6=Night And Day
TTITLE7=Body And Soul
TTITLE8=Movin'on
TTITLE9=Days Of Wine And Roses
TTITLE10=Besame Mucho
EXTD=YEAR: 2004
EXTT0=
EXTT1=
EXTT2=
EXTT3=
EXTT4=
EXTT5=
EXTT6=
EXTT7=
EXTT8=
EXTT9=
EXTT10=
PLAYORDER=
